<?xml version="1.0" encoding="utf-8"?>
<!-- Generator: Adobe Illustrator 24.0.0, SVG Export Plug-In . SVG Version: 6.00 Build 0)  -->
<svg version="1.1" id="temp" xmlns="http://www.w3.org/2000/svg" xmlns:xlink="http://www.w3.org/1999/xlink" x="0px" y="0px"
	 viewBox="0 0 214.8 131.8" style="enable-background:new 0 0 214.8 131.8;" xml:space="preserve">
<style type="text/css">
	.st0{fill:#D9D9D9;}
	.st1{fill:#5598FE;}
	.st2{fill:#FEFEFE;}
	.st3{fill:#5498FE;}
	.st4{fill:#5297FE;}
	.st5{fill:#FDFEFE;}
</style>
<path class="st0" d="M57.6,130.9c-0.3-0.3-0.5-0.7-0.9-1C39.9,113.1,23.2,96.4,6.4,79.6c-0.4-0.4-0.7-0.8-1-1.2
	c0.3-0.2,0.7-0.2,1-0.2c32.3,0.1,64.5,0,96.8,0.1c3.4,0,4.1-1.3,4.1-4.2c-0.1-20.7-0.1-41.3,0-62.1c0-1.2-0.4-2.4-0.2-3.6
	c2,0.7,3.5,1.9,5.3,2.9c5.6,3.2,11.2,6.4,16.8,9.6c4.3,2.5,8.6,5,12.9,7.5c5.1,2.9,10.2,5.9,15.3,8.8c5.1,2.9,10.1,5.9,15.2,8.7
	c5.5,3.2,11,6.3,16.5,9.5c4.3,2.5,8.6,5,12.9,7.5c3.3,1.9,6.6,3.8,9.9,5.7c0,20.4,0,40.8,0,61.2c0,0.9-0.2,1-1,1
	C159.9,130.9,108.8,130.9,57.6,130.9z"/>
<path class="st1" d="M172.3,8.4c0.8,1.3,1.2,2.8,1.2,4.4c0,34.9,0,69.8,0,104.7c0,4.3-1.9,6.2-6.2,6.2c-52.8,0-105.5,0-158.3,0
	c-1.2,0-2.4-0.1-3.5-0.5c-1.8-1.4-2.6-3.2-2.6-5.5c0-35,0-69.9,0-104.9c0-4.2,2-6.2,6.2-6.2c52.7,0,105.4,0,158.1,0
	C169.2,6.4,170.9,7,172.3,8.4z"/>
<path class="st2" d="M74.1,17.2c19.5,0,39.1,0,58.6,0c1.7,0,2.3,0.4,2,2.1c-0.1,0.7,0,1.5,0,2.2c0,3.3,0,3.3-3.2,3.3
	c-14.2,0-28.4,0-42.6,0c-1.6,0-2.4,0.4-2.1,2.1c0,0.1,0,0.1,0,0.2c0,2,0.6,4.5-0.3,5.8c-1,1.3-3.6,0.4-5.5,0.4
	c-1.1,0-1.3,0.4-1.3,1.4c0,7.6,0,15.2,0,22.8c0,1,0.3,1.4,1.3,1.2c0.1,0,0.3,0,0.4,0c3.4,0,3.4,0,3.6,3.5c0.1,1.8,1.3,3.1,3,3.2
	s3.1-1.2,3.4-3c0.2-1.2-0.6-2.7,0.4-3.4c0.9-0.5,2.3-0.3,3.5-0.2c1.1,0,1.3-0.4,1.3-1.4c0-7.5,0-15.1,0-22.6c0-1-0.3-1.4-1.4-1.4
	c-1.5,0.1-3.1,0-4.6,0c-0.5,0-1.2,0.1-1.2-0.7c0-1.5-0.1-3.1,0-4.6c0.1-1.1,1.2-0.6,1.8-0.6c7.7,0,15.3,0,23,0c7,0,14-0.1,21,0
	c1.8,0,2.3-0.5,2.2-2.2c-0.1-2.2,0-4.4-0.1-6.6c0-0.9,0.3-1.3,1.3-1.3c7.6,0,15.2,0,22.8,0c1,0,1.3,0.4,1.3,1.3c0,0.4,0,0.8,0,1.2
	c0,30.3,0,60.6,0,91c0,2-0.4,2.6-2.5,2.5c-22.6-0.1-45.2-0.1-67.8,0c-1.7,0-2.6-0.3-2.3-2.3c0.2-1.6,0.2-3.2,0-4.8
	c-0.2-1.9,0.4-2.5,2.4-2.5c17.4,0.1,34.8,0,52.2,0c1.1,0,2.2,0.3,2.1-1.5c-0.1-0.7-0.3-1.1-1.1-1.1c-0.3,0-0.7,0-1,0
	c-37.7,0-75.4,0-113.2,0c-0.7,0-1.8-0.6-2.1,0.8c-0.2,1.5,0.5,1.7,1.8,1.7c12.8,0,25.6,0,38.4,0c4.9,0,9.9,0,14.8,0
	c1.2,0,1.8,0.3,1.7,1.7c-0.1,2-0.1,4,0,6c0.1,1.4-0.4,1.8-1.8,1.8c-5.7-0.1-11.5,0-17.2,0c-17.2,0-34.4,0-51.6,0
	c-1.8,0-2.2-0.4-2.2-2.2c0.1-30.5,0.1-61,0-91.6c0-1.9,0.6-2.3,2.3-2.3C35.2,17.2,54.7,17.2,74.1,17.2z"/>
<path class="st3" d="M90.6,91.2c0-2.2,0-4.4,0-6.6c0-1,0.3-1.4,1.4-1.4c2.3,0.1,4.7,0,7,0.3c4.3,0.7,6.7,3.5,6.6,8
	c-0.1,4.2-2.7,7.2-6.9,7.6c-2.3,0.2-4.5,0.1-6.8,0.2c-1,0-1.3-0.3-1.3-1.3C90.6,95.8,90.6,93.5,90.6,91.2z"/>
<path class="st4" d="M98.5,76.8c-1-1.1-1.8-0.8-2.5-0.8c-6.3,0-12.5-0.1-18.8,0c-1.7,0-2.4-0.4-2.3-2.2c0.1-3.4,0-3.4,3.4-3.4
	c2.4,0,4.8-0.1,7.2,0c1.2,0,1.8-0.3,1.6-1.5c-0.1-0.4,0-0.8,0-1.2c0.1-0.7,0.4-1.2,1.1-1.2s1.1,0.5,1.1,1.2c0,1.2,0.1,2.4,0,3.6
	c-0.1,1.3-1,1.4-2,1.4c-2.9,0-5.9,0-8.8,0c-0.5,0-1.4-0.3-1.4,0.6s0.9,0.6,1.4,0.6c6.5,0,12.9,0.1,19.4,0c1.9,0,2.4,0.6,2.4,2.4
	s-0.3,2.8-2.4,2.6c-1.1-0.1-2.3,0-3.4,0c-1.2,0-2.4-0.3-2.4,1.6c0,0.8-1,1.1-1.5,0.5c-0.8-0.9-0.4-2.2-0.3-3.3c0.1-1,1-0.9,1.7-0.9
	C93.9,76.8,96,76.8,98.5,76.8z"/>
<path id="num3" class="st3" d="M74.6,95.8c1.8,0.6,3.4,1.2,5.2,1c1.3-0.2,2.6-0.5,2.7-2.1c0.1-1.7-1.3-2-2.5-2.3
	c-0.5-0.1-1.1-0.1-1.6,0c-1,0.1-1.1-0.5-1.1-1.2s-0.1-1.5,1-1.5c0.7,0,1.3,0,2-0.1c1-0.1,1.8-0.6,1.8-1.8c0-1.1-0.7-1.7-1.7-1.8
	c-1.7-0.3-3.3,0.1-4.9,0.6c-0.4-3-0.4-3.2,2.5-3.3c1.5-0.1,2.9-0.1,4.4,0c1.8,0.2,3.4,0.9,3.8,3s-0.2,3.1-2.4,4.4
	c1.2,0.7,2.3,1.4,2.7,2.8c0.7,2.4-0.5,4.7-2.9,5.6c-2.7,0.9-5.4,0.8-8.1,0.1C73.8,98.6,74.9,97,74.6,95.8z"/>
<path class="st5" d="M94.6,91.2c0-0.9,0.1-1.7,0-2.6c-0.3-1.9,0.6-2.4,2.3-2.2c3.1,0.4,4.8,2.5,4.4,5.7c-0.3,2.8-2.8,4.5-5.8,4.1
	c-0.8-0.1-1-0.5-0.9-1.2C94.6,93.7,94.6,92.4,94.6,91.2z"/>
</svg>
